<svg id="svg" version="1.1" xmlns="http://www.w3.org/2000/svg" xmlns:xlink="http://www.w3.org/1999/xlink" width="400" height="86.58536585365853" viewBox="0, 0, 400,86.58536585365853"><g id="svgg"><path id="path0" d="M165.038 21.468 C 164.228 21.588,164.208 21.776,164.207 28.965 C 164.206 35.160,164.183 35.705,163.911 36.007 C 163.392 36.579,162.625 36.435,161.667 35.583 C 161.202 35.171,160.724 34.833,160.603 34.833 C 160.482 34.833,159.870 34.561,159.243 34.228 C 157.156 33.121,150.520 33.025,148.520 34.073 C 148.096 34.295,147.412 34.630,147.000 34.817 C 144.931 35.758,142.056 38.651,141.456 40.394 C 141.357 40.682,141.102 41.182,140.889 41.507 C 140.676 41.832,140.422 42.544,140.325 43.090 C 140.074 44.502,140.026 44.621,139.676 44.713 C 139.312 44.808,138.290 43.226,137.707 41.667 C 136.404 38.180,133.514 35.608,128.994 33.914 C 126.790 33.088,118.949 33.256,117.083 34.170 C 116.533 34.439,115.775 34.736,115.398 34.830 C 115.021 34.924,114.384 35.262,113.982 35.582 C 113.579 35.902,113.169 36.164,113.070 36.165 C 112.576 36.169,108.667 40.531,108.667 41.076 C 108.667 41.192,108.428 41.728,108.137 42.268 C 107.845 42.808,107.482 43.700,107.329 44.250 C 106.941 45.648,106.459 45.738,106.168 44.467 C 106.057 43.981,105.720 43.096,105.420 42.500 C 105.119 41.904,104.823 41.181,104.761 40.892 C 104.699 40.604,104.500 40.234,104.319 40.070 C 104.137 39.906,103.826 39.504,103.627 39.178 C 102.603 37.497,99.934 35.320,98.035 34.618 C 97.328 34.356,96.454 34.031,96.093 33.894 C 93.841 33.044,86.480 33.247,84.240 34.221 C 83.512 34.538,82.729 34.853,82.500 34.921 C 82.271 34.990,81.867 35.226,81.603 35.447 C 81.338 35.668,80.842 35.992,80.500 36.167 C 79.824 36.511,77.527 38.704,77.057 39.453 C 76.897 39.708,76.567 40.179,76.324 40.500 C 76.080 40.821,75.753 41.473,75.597 41.949 C 75.441 42.425,75.178 42.987,75.013 43.199 C 74.849 43.410,74.581 43.846,74.419 44.167 C 74.039 44.919,74.082 44.889,73.693 44.681 C 73.466 44.559,73.295 44.202,73.166 43.578 C 72.303 39.424,67.644 34.711,63.457 33.758 C 60.569 33.100,55.949 33.303,54.417 34.155 C 53.958 34.409,53.317 34.704,52.992 34.811 C 52.667 34.917,52.032 35.378,51.582 35.835 C 50.278 37.159,49.000 36.735,49.229 35.054 C 49.425 33.610,49.364 33.591,44.351 33.531 L 40.005 33.480 39.586 33.899 L 39.166 34.319 39.208 55.321 L 39.250 76.324 39.629 76.704 C 40.317 77.392,47.922 77.365,48.833 76.670 L 49.250 76.353 49.291 69.642 C 49.335 62.267,49.311 62.434,50.347 62.464 C 50.716 62.474,51.067 62.657,51.482 63.055 C 51.813 63.371,52.346 63.762,52.667 63.923 C 52.987 64.084,53.475 64.382,53.750 64.584 C 54.052 64.807,54.745 65.036,55.500 65.164 C 56.188 65.280,57.087 65.436,57.500 65.511 C 58.839 65.754,61.058 65.679,62.683 65.336 C 63.545 65.154,64.446 65.004,64.685 65.003 C 64.924 65.001,65.395 64.813,65.731 64.585 C 66.067 64.357,66.584 64.046,66.880 63.893 C 69.520 62.528,72.438 58.665,73.156 55.583 C 73.538 53.941,73.854 53.938,74.793 55.563 C 75.183 56.239,75.590 57.043,75.697 57.349 C 75.896 57.920,76.469 58.763,77.682 60.273 C 78.308 61.052,78.748 61.447,80.848 63.122 C 81.220 63.418,81.837 63.743,82.220 63.844 C 82.603 63.945,83.254 64.241,83.667 64.500 C 84.167 64.815,84.749 65.009,85.417 65.083 C 85.967 65.144,87.341 65.340,88.471 65.520 C 90.428 65.832,90.621 65.834,92.554 65.581 C 93.670 65.435,95.221 65.238,96.000 65.144 C 97.003 65.023,97.660 64.838,98.250 64.511 C 98.708 64.257,99.383 63.951,99.749 63.832 C 100.935 63.444,103.554 61.576,103.983 60.813 C 104.392 60.084,104.101 59.631,101.921 57.604 C 99.219 55.091,99.300 55.095,96.447 57.341 C 96.091 57.621,95.549 57.765,94.197 57.938 C 93.218 58.064,92.225 58.207,91.990 58.256 C 90.943 58.476,88.375 57.827,87.417 57.100 C 85.179 55.401,84.017 53.300,84.789 52.347 L 85.105 51.957 95.401 51.982 C 107.711 52.012,106.930 51.846,107.351 54.531 C 107.460 55.225,107.736 56.109,107.994 56.583 C 108.243 57.042,108.532 57.669,108.638 57.977 C 109.169 59.532,113.317 63.323,115.232 64.003 C 115.700 64.170,116.366 64.455,116.712 64.637 C 117.058 64.819,117.808 65.019,118.379 65.081 C 118.950 65.144,119.867 65.310,120.417 65.450 C 122.565 66.000,129.333 65.327,131.238 64.375 C 131.690 64.149,132.340 63.865,132.683 63.744 C 133.311 63.523,134.800 62.572,135.417 62.000 C 135.600 61.830,135.956 61.501,136.208 61.269 C 137.137 60.417,136.935 59.951,134.656 57.683 C 132.148 55.187,131.941 55.119,130.551 56.339 C 130.242 56.611,129.918 56.833,129.832 56.833 C 129.747 56.833,129.351 57.063,128.953 57.343 C 127.782 58.168,122.697 58.439,121.089 57.761 C 118.877 56.829,116.542 53.381,117.374 52.273 C 117.699 51.839,137.708 51.804,138.740 52.235 C 139.459 52.535,139.919 53.425,140.194 55.044 C 140.563 57.226,143.646 62.207,144.867 62.594 C 145.044 62.650,145.427 62.901,145.719 63.152 C 146.011 63.403,146.833 63.919,147.545 64.299 C 148.814 64.976,149.103 65.053,152.750 65.689 C 154.741 66.037,158.669 65.342,160.081 64.392 C 160.538 64.085,160.985 63.833,161.075 63.833 C 161.164 63.833,161.540 63.542,161.910 63.186 C 163.186 61.960,164.432 62.226,164.317 63.700 C 164.205 65.144,164.691 65.356,168.032 65.319 C 170.038 65.297,170.532 65.342,171.005 65.586 C 172.061 66.132,173.502 65.828,174.086 64.936 C 174.489 64.322,174.756 59.206,174.439 58.185 C 174.238 57.537,174.206 54.661,174.232 39.767 C 174.261 23.368,174.243 22.092,173.979 21.767 C 173.713 21.438,166.800 21.207,165.038 21.468 M20.667 33.416 C 19.887 33.540,18.867 33.647,18.398 33.654 C 17.763 33.663,17.381 33.780,16.898 34.110 C 16.542 34.354,15.904 34.682,15.480 34.838 C 14.795 35.091,12.501 36.745,12.499 36.988 C 12.499 37.041,12.199 37.479,11.832 37.963 C 11.004 39.055,9.905 43.121,10.154 44.167 C 10.832 47.003,12.595 49.556,14.477 50.428 C 14.785 50.570,15.310 50.867,15.644 51.087 C 15.977 51.307,16.657 51.574,17.155 51.681 C 17.653 51.787,18.553 52.082,19.155 52.335 C 19.757 52.589,20.512 52.852,20.833 52.919 C 21.154 52.986,21.829 53.248,22.333 53.500 C 22.837 53.753,23.577 54.014,23.976 54.081 C 24.832 54.224,26.402 55.492,26.573 56.179 C 27.176 58.595,22.957 59.919,19.057 58.540 C 18.217 58.243,17.387 58.000,17.212 58.000 C 17.038 58.000,16.305 57.700,15.583 57.333 C 14.862 56.967,14.192 56.666,14.094 56.666 C 13.997 56.666,13.579 56.441,13.167 56.167 C 11.958 55.363,11.315 55.494,11.017 56.603 C 10.915 56.981,10.693 57.468,10.524 57.687 C 10.096 58.237,9.000 60.592,9.000 60.960 C 9.000 61.763,11.522 63.548,13.280 63.990 C 13.722 64.101,14.328 64.343,14.628 64.528 C 14.984 64.748,15.908 64.973,17.295 65.178 C 18.462 65.351,19.777 65.569,20.217 65.663 C 21.203 65.873,23.025 65.877,23.917 65.671 C 24.283 65.587,25.544 65.406,26.719 65.269 C 28.564 65.055,28.961 64.954,29.636 64.525 C 30.065 64.252,30.738 63.943,31.132 63.839 C 31.917 63.632,32.250 63.354,33.943 61.491 C 35.199 60.109,36.279 57.174,36.208 55.333 C 36.112 52.840,33.642 48.971,31.667 48.220 C 31.254 48.063,30.654 47.766,30.333 47.559 C 30.012 47.352,29.387 47.102,28.944 47.004 C 28.501 46.906,27.690 46.637,27.143 46.407 C 26.595 46.176,25.758 45.917,25.282 45.831 C 24.806 45.744,23.929 45.454,23.333 45.185 C 22.738 44.916,21.931 44.612,21.542 44.508 C 20.024 44.105,19.217 42.819,19.597 41.407 C 19.715 40.966,21.347 39.989,22.144 39.882 C 23.097 39.754,27.795 40.739,29.034 41.326 C 32.405 42.924,33.227 42.790,34.021 40.510 C 34.125 40.213,34.458 39.600,34.762 39.149 C 35.831 37.560,35.728 36.422,34.478 36.000 C 34.070 35.862,33.464 35.579,33.131 35.369 C 32.798 35.160,32.117 34.882,31.619 34.752 C 31.121 34.623,30.425 34.346,30.072 34.138 C 29.544 33.826,29.003 33.725,27.007 33.565 C 22.418 33.198,22.092 33.190,20.667 33.416 M93.114 40.598 C 95.787 41.412,97.784 45.122,96.333 46.575 C 95.931 46.977,86.208 47.208,84.978 46.844 C 84.096 46.583,83.889 45.558,84.503 44.497 C 84.688 44.178,84.957 43.654,85.099 43.333 C 85.631 42.139,87.192 40.918,88.716 40.503 C 89.468 40.299,90.158 40.104,90.250 40.071 C 90.556 39.961,91.736 40.178,93.114 40.598 M125.138 40.401 C 126.997 40.885,127.291 41.066,128.298 42.351 C 129.460 43.834,129.853 45.694,129.181 46.523 L 128.862 46.917 123.187 46.917 C 116.700 46.917,116.922 46.965,116.975 45.573 C 117.078 42.841,119.810 40.490,123.425 40.023 C 123.522 40.010,124.293 40.180,125.138 40.401 M59.764 41.607 C 65.335 44.472,65.340 54.190,59.771 57.124 L 58.583 57.750 56.500 57.745 L 54.417 57.740 53.374 57.095 C 52.370 56.475,51.000 55.178,51.000 54.848 C 51.000 54.761,50.776 54.328,50.502 53.886 C 49.969 53.025,49.506 50.950,49.506 49.417 C 49.505 42.981,54.718 39.012,59.764 41.607 M159.227 41.608 C 160.994 42.313,161.726 42.806,162.107 43.550 C 162.257 43.843,162.586 44.320,162.838 44.610 C 164.879 46.953,164.117 53.824,161.554 56.184 C 158.407 59.083,152.938 58.466,151.061 55.000 C 150.837 54.587,150.502 54.009,150.316 53.715 C 150.122 53.409,149.941 52.767,149.892 52.215 C 149.844 51.684,149.684 50.891,149.534 50.452 C 149.283 49.714,149.283 49.570,149.537 48.535 C 149.687 47.920,149.859 47.042,149.918 46.583 C 150.421 42.684,155.337 40.056,159.227 41.608 " stroke="none" fill="#1b1321x" fill-rule="evenodd"></path><path id="path1" d="M217.250 6.840 C 216.792 6.912,215.874 7.165,215.211 7.402 C 214.549 7.639,213.799 7.834,213.545 7.834 C 213.291 7.834,212.563 8.097,211.926 8.417 C 211.290 8.738,210.682 9.000,210.576 9.000 C 209.799 9.000,206.065 11.144,204.188 12.667 C 203.566 13.172,202.801 13.765,202.487 13.986 C 201.744 14.509,198.149 18.647,197.459 19.774 C 197.299 20.036,196.945 20.550,196.673 20.917 C 196.058 21.744,195.995 22.661,196.519 23.149 C 196.891 23.495,197.015 23.513,201.083 23.807 C 202.818 23.933,203.436 24.048,204.184 24.386 C 204.697 24.618,205.538 24.885,206.052 24.980 C 206.566 25.075,207.272 25.342,207.620 25.573 C 207.969 25.803,208.608 26.099,209.039 26.228 C 209.750 26.442,211.403 27.485,211.706 27.911 C 211.936 28.236,211.833 28.840,211.441 29.462 C 211.225 29.804,210.991 30.266,210.920 30.488 C 210.850 30.711,210.585 31.178,210.333 31.527 C 210.081 31.875,209.788 32.504,209.682 32.925 C 209.576 33.346,209.236 34.059,208.926 34.509 C 208.616 34.959,208.332 35.421,208.294 35.535 C 208.165 35.920,206.928 35.777,206.230 35.296 C 205.874 35.051,205.263 34.779,204.871 34.692 C 204.479 34.605,203.904 34.339,203.592 34.101 C 203.280 33.863,202.630 33.584,202.149 33.481 C 201.667 33.377,200.771 33.079,200.158 32.818 C 197.358 31.627,192.019 31.790,190.809 33.104 C 189.411 34.624,190.937 37.855,193.362 38.508 C 193.756 38.614,194.430 38.879,194.860 39.097 C 195.290 39.315,196.004 39.571,196.446 39.667 C 196.888 39.762,197.668 40.024,198.179 40.250 C 198.690 40.475,199.645 40.772,200.302 40.910 C 200.958 41.048,201.853 41.345,202.289 41.570 C 202.726 41.794,203.446 42.030,203.890 42.093 C 204.365 42.161,205.015 42.424,205.473 42.731 C 205.900 43.019,206.662 43.506,207.167 43.815 C 208.479 44.617,210.562 46.759,210.831 47.583 C 210.951 47.950,211.282 48.663,211.566 49.167 L 212.083 50.083 212.083 53.167 C 212.083 56.065,212.060 56.294,211.699 56.982 C 211.487 57.385,211.181 58.065,211.018 58.494 C 210.660 59.435,209.473 61.081,208.957 61.353 C 208.751 61.461,208.405 61.725,208.186 61.941 C 207.816 62.306,206.450 63.133,205.507 63.563 C 205.281 63.666,204.532 64.039,203.842 64.392 C 202.770 64.940,202.351 65.055,200.955 65.187 C 200.056 65.271,198.780 65.454,198.119 65.594 C 195.991 66.042,194.111 66.075,192.325 65.696 C 191.450 65.510,190.106 65.272,189.339 65.167 C 188.572 65.062,187.489 64.796,186.931 64.575 C 186.373 64.354,185.440 64.065,184.858 63.931 C 184.275 63.797,183.525 63.509,183.191 63.289 C 182.857 63.070,182.336 62.805,182.034 62.701 C 181.732 62.597,181.246 62.341,180.953 62.131 C 180.660 61.921,180.152 61.628,179.823 61.480 C 176.998 60.202,176.341 58.994,177.483 57.178 C 177.746 56.759,178.055 56.117,178.168 55.750 C 178.282 55.383,178.560 54.835,178.787 54.531 C 179.014 54.228,179.274 53.709,179.365 53.378 C 179.778 51.884,181.073 51.417,182.267 52.331 C 183.557 53.318,184.717 54.023,185.585 54.348 C 186.071 54.530,186.561 54.790,186.673 54.925 C 186.785 55.060,187.298 55.291,187.813 55.440 C 188.329 55.588,189.120 55.895,189.572 56.123 C 192.550 57.621,198.510 57.477,200.229 55.866 C 201.818 54.375,201.102 51.652,198.843 50.602 C 198.425 50.407,197.812 50.080,197.480 49.874 C 197.148 49.668,196.479 49.424,195.992 49.332 C 195.506 49.240,194.690 48.973,194.179 48.738 C 193.668 48.504,192.697 48.207,192.021 48.077 C 191.344 47.947,190.534 47.690,190.219 47.504 C 189.905 47.318,189.296 47.079,188.865 46.971 C 188.435 46.864,187.560 46.527,186.921 46.221 C 186.282 45.916,185.665 45.667,185.549 45.667 C 185.433 45.667,184.896 45.435,184.356 45.152 C 183.175 44.533,181.667 45.137,181.667 46.229 C 181.667 46.331,181.416 46.789,181.110 47.249 C 180.804 47.708,180.230 48.646,179.835 49.333 C 179.440 50.021,178.923 50.883,178.688 51.250 C 178.453 51.617,178.089 52.254,177.879 52.667 C 177.669 53.079,177.329 53.657,177.124 53.950 C 176.918 54.244,176.425 55.050,176.028 55.742 C 174.615 58.203,174.667 58.833,174.667 39.037 L 174.667 21.718 174.316 21.401 C 173.996 21.111,173.593 21.076,169.691 21.000 C 162.914 20.868,163.555 20.084,163.514 28.563 C 163.496 32.206,163.440 35.295,163.390 35.427 C 163.253 35.784,162.596 35.717,162.234 35.309 C 162.060 35.113,161.507 34.769,161.007 34.546 C 160.507 34.323,159.896 33.997,159.649 33.821 C 159.081 33.416,155.569 32.639,154.250 32.625 C 148.734 32.570,142.901 35.774,141.228 39.778 C 141.091 40.104,140.802 40.644,140.584 40.977 C 140.367 41.311,140.137 41.883,140.073 42.250 C 139.788 43.882,139.344 43.690,138.243 41.458 C 136.030 36.970,132.223 33.839,128.348 33.319 C 127.652 33.226,126.543 33.041,125.882 32.908 C 124.471 32.625,122.577 32.596,121.314 32.840 C 120.821 32.936,119.680 33.118,118.779 33.247 C 117.629 33.410,116.859 33.626,116.196 33.969 C 115.675 34.239,115.006 34.512,114.708 34.576 C 114.410 34.641,113.859 34.950,113.484 35.263 C 113.109 35.577,112.748 35.833,112.683 35.833 C 112.290 35.833,108.620 39.842,108.417 40.491 C 108.347 40.715,108.084 41.240,107.832 41.658 C 107.579 42.075,107.283 42.698,107.174 43.042 C 106.958 43.717,106.333 43.954,106.333 43.360 C 106.333 43.191,106.033 42.447,105.667 41.707 C 105.300 40.967,105.000 40.280,105.000 40.181 C 105.000 40.082,104.737 39.710,104.417 39.355 C 104.096 39.000,103.833 38.656,103.833 38.591 C 103.833 37.990,99.792 34.500,99.097 34.500 C 98.985 34.500,98.485 34.282,97.988 34.016 C 96.126 33.019,90.601 32.434,87.764 32.933 C 84.250 33.552,83.758 33.672,83.181 34.054 C 82.850 34.273,82.392 34.509,82.164 34.577 C 80.111 35.195,76.463 38.787,75.303 41.333 C 75.073 41.837,74.690 42.535,74.452 42.884 L 74.019 43.519 73.676 43.176 C 73.488 42.988,73.333 42.695,73.333 42.526 C 73.333 40.807,69.223 35.692,67.000 34.647 C 66.587 34.453,66.046 34.149,65.796 33.972 C 64.626 33.142,59.127 32.482,57.083 32.926 C 56.442 33.065,55.547 33.252,55.096 33.341 C 54.645 33.430,53.932 33.716,53.513 33.976 C 53.093 34.237,52.515 34.542,52.228 34.654 C 51.941 34.766,51.495 35.077,51.238 35.345 C 50.410 36.211,49.996 35.992,49.927 34.654 C 49.853 33.199,49.731 33.169,43.847 33.149 C 39.999 33.136,39.428 33.168,39.189 33.406 C 38.819 33.776,38.764 76.831,39.133 77.200 C 39.297 77.364,40.411 77.429,43.716 77.468 C 48.583 77.525,49.033 77.482,49.602 76.913 L 50.000 76.515 50.000 69.958 C 50.000 65.333,50.055 63.345,50.187 63.213 C 50.426 62.974,50.836 63.131,51.213 63.606 C 51.375 63.812,51.674 64.033,51.875 64.097 C 52.076 64.161,52.618 64.458,53.079 64.759 C 53.540 65.059,54.244 65.357,54.644 65.420 C 55.045 65.484,55.720 65.691,56.144 65.880 C 57.460 66.465,60.914 66.502,62.702 65.950 C 63.462 65.715,64.475 65.453,64.954 65.368 C 66.267 65.135,69.417 62.947,70.520 61.502 C 70.738 61.216,71.149 60.705,71.432 60.366 C 72.122 59.543,73.095 57.749,73.324 56.883 C 73.732 55.336,74.431 55.645,75.345 57.778 C 75.946 59.179,78.455 62.037,79.883 62.945 C 80.231 63.166,80.558 63.457,80.609 63.591 C 80.661 63.725,81.108 63.952,81.603 64.096 C 82.099 64.240,82.724 64.544,82.994 64.770 C 83.315 65.041,83.840 65.240,84.521 65.350 C 85.092 65.442,85.611 65.549,85.676 65.589 C 86.921 66.358,94.123 66.498,95.292 65.775 C 95.368 65.728,96.072 65.578,96.856 65.441 C 97.861 65.266,98.520 65.041,99.090 64.680 C 99.535 64.397,100.010 64.167,100.145 64.167 C 100.612 64.167,103.251 62.458,104.062 61.631 C 105.352 60.314,105.238 59.993,102.555 57.407 C 99.913 54.860,99.122 54.611,97.574 55.841 C 95.423 57.550,90.880 58.404,89.046 57.444 C 84.714 55.176,84.108 52.119,88.081 52.583 C 88.632 52.647,92.743 52.688,97.216 52.674 C 107.162 52.643,106.593 52.468,107.160 55.734 C 107.260 56.305,107.542 57.046,107.832 57.499 C 108.108 57.928,108.333 58.360,108.333 58.458 C 108.333 58.960,110.800 61.700,112.083 62.624 C 112.542 62.954,113.104 63.385,113.333 63.581 C 114.052 64.195,116.388 65.162,117.763 65.414 C 118.489 65.547,119.571 65.815,120.167 66.011 C 121.552 66.465,125.422 66.383,127.583 65.854 C 128.317 65.674,129.404 65.440,130.000 65.333 C 130.596 65.226,131.496 64.926,132.000 64.666 C 132.504 64.405,133.084 64.144,133.288 64.086 C 133.492 64.028,133.968 63.722,134.345 63.407 C 134.723 63.091,135.081 62.832,135.141 62.830 C 135.201 62.828,135.719 62.388,136.292 61.853 C 137.941 60.311,137.898 60.148,135.086 57.356 L 132.839 55.125 131.939 55.200 C 131.201 55.261,130.910 55.385,130.323 55.887 C 129.929 56.224,129.522 56.500,129.419 56.500 C 129.316 56.500,128.864 56.733,128.414 57.019 C 127.091 57.858,122.644 58.015,121.220 57.273 C 119.558 56.406,117.578 53.789,117.994 53.011 C 118.186 52.653,121.154 52.584,133.795 52.642 C 139.044 52.667,138.955 52.620,139.897 55.863 C 140.537 58.067,141.984 60.488,143.593 62.048 C 144.667 63.090,145.980 64.167,146.174 64.167 C 146.259 64.167,146.696 64.393,147.146 64.670 C 150.728 66.874,157.814 66.834,160.752 64.593 C 161.059 64.359,161.385 64.167,161.476 64.167 C 161.567 64.167,161.853 63.992,162.112 63.778 C 163.034 63.018,163.500 63.165,163.500 64.217 C 163.500 65.505,164.599 66.000,167.460 66.000 C 169.914 66.000,170.493 66.184,170.504 66.965 C 170.567 71.184,171.680 73.695,174.301 75.532 C 174.915 75.961,175.694 76.512,176.033 76.756 C 176.606 77.168,176.829 77.210,179.200 77.353 C 184.126 77.651,286.277 77.461,286.584 77.154 C 286.821 76.918,286.848 74.748,286.856 55.539 C 286.863 38.102,286.905 34.132,287.086 33.885 C 287.288 33.609,287.693 33.579,291.917 33.532 C 297.184 33.473,297.326 33.502,297.343 34.629 C 297.371 36.474,297.931 36.817,299.260 35.802 C 299.777 35.407,300.399 34.972,300.642 34.836 C 300.885 34.701,301.429 34.381,301.852 34.126 C 303.846 32.922,311.412 32.954,312.962 34.172 C 313.177 34.341,313.732 34.605,314.195 34.760 C 315.095 35.058,317.440 36.921,318.123 37.878 C 318.328 38.166,318.606 38.463,318.741 38.538 C 319.206 38.798,320.803 42.077,321.361 43.917 L 321.917 45.750 321.899 49.750 C 321.880 54.035,321.808 54.517,320.809 57.099 C 319.810 59.682,317.023 62.918,315.000 63.843 C 314.587 64.031,313.987 64.363,313.667 64.581 C 313.346 64.798,312.671 65.054,312.167 65.150 C 311.662 65.246,310.537 65.475,309.667 65.660 C 307.105 66.203,303.224 65.700,301.500 64.602 C 301.179 64.398,300.684 64.137,300.399 64.022 C 300.114 63.907,299.592 63.517,299.240 63.156 C 298.464 62.361,297.908 62.293,297.643 62.958 C 297.355 63.681,297.326 76.802,297.611 77.088 C 298.168 77.645,344.348 77.670,346.167 77.115 C 346.671 76.961,347.796 76.647,348.667 76.417 C 349.537 76.188,350.692 75.775,351.232 75.500 C 351.772 75.225,352.376 75.000,352.574 75.000 C 352.772 75.000,353.300 74.768,353.747 74.485 C 354.194 74.201,354.940 73.787,355.405 73.564 C 356.678 72.953,358.033 72.056,358.500 71.515 C 358.729 71.250,359.217 70.845,359.583 70.616 C 360.362 70.129,363.029 67.549,363.751 66.584 C 364.026 66.217,364.529 65.505,364.870 65.000 C 365.211 64.496,365.618 63.896,365.774 63.667 C 366.738 62.248,367.167 61.564,367.167 61.442 C 367.167 61.367,367.382 60.992,367.646 60.611 C 367.909 60.229,368.453 59.331,368.854 58.616 C 369.255 57.901,369.864 56.888,370.208 56.366 C 370.551 55.844,370.833 55.349,370.833 55.266 C 370.833 55.183,371.010 54.883,371.226 54.599 C 371.442 54.315,371.790 53.746,372.000 53.333 C 372.210 52.921,372.558 52.351,372.774 52.068 C 372.990 51.784,373.167 51.484,373.167 51.401 C 373.167 51.318,373.467 50.809,373.834 50.269 C 374.200 49.730,374.500 49.197,374.500 49.086 C 374.500 48.974,374.733 48.561,375.019 48.167 C 375.304 47.774,375.641 47.219,375.768 46.934 C 375.895 46.649,376.336 45.892,376.748 45.250 C 377.160 44.608,377.694 43.708,377.934 43.250 C 378.174 42.792,378.539 42.192,378.745 41.917 C 378.951 41.642,379.321 41.042,379.567 40.583 C 379.813 40.125,380.310 39.262,380.673 38.667 C 381.035 38.071,381.518 37.232,381.746 36.803 C 381.974 36.375,382.245 35.971,382.349 35.907 C 382.452 35.843,382.723 35.369,382.950 34.854 C 383.177 34.338,383.478 33.788,383.619 33.630 C 383.985 33.222,385.500 30.620,385.500 30.401 C 385.500 30.301,385.661 30.075,385.858 29.901 C 386.054 29.726,386.364 29.250,386.546 28.844 C 386.728 28.437,387.092 27.807,387.355 27.444 C 387.618 27.080,387.833 26.719,387.833 26.640 C 387.833 26.561,388.063 26.141,388.344 25.707 C 389.796 23.461,390.045 23.049,390.271 22.509 C 390.405 22.186,390.656 21.770,390.828 21.586 C 391.000 21.401,391.446 20.342,391.820 19.232 C 392.710 16.590,392.709 15.978,391.810 13.209 L 391.119 11.083 389.665 9.625 C 388.455 8.411,387.962 8.047,386.730 7.458 L 385.250 6.750 301.667 6.729 C 255.696 6.717,217.708 6.767,217.250 6.840 M173.979 21.767 C 174.243 22.092,174.261 23.368,174.232 39.767 C 174.206 54.661,174.238 57.537,174.439 58.185 C 174.756 59.206,174.489 64.322,174.086 64.936 C 173.502 65.828,172.061 66.132,171.005 65.586 C 170.532 65.342,170.038 65.297,168.032 65.319 C 164.691 65.356,164.205 65.144,164.317 63.700 C 164.432 62.226,163.186 61.960,161.910 63.186 C 161.540 63.542,161.164 63.833,161.075 63.833 C 160.985 63.833,160.538 64.085,160.081 64.392 C 158.669 65.342,154.741 66.037,152.750 65.689 C 149.103 65.053,148.814 64.976,147.545 64.299 C 146.833 63.919,146.011 63.403,145.719 63.152 C 145.427 62.901,145.044 62.650,144.867 62.594 C 143.646 62.207,140.563 57.226,140.194 55.044 C 139.919 53.425,139.459 52.535,138.740 52.235 C 137.708 51.804,117.699 51.839,117.374 52.273 C 116.542 53.381,118.877 56.829,121.089 57.761 C 122.697 58.439,127.782 58.168,128.953 57.343 C 129.351 57.063,129.747 56.833,129.832 56.833 C 129.918 56.833,130.242 56.611,130.551 56.339 C 131.941 55.119,132.148 55.187,134.656 57.683 C 136.935 59.951,137.137 60.417,136.208 61.269 C 135.956 61.501,135.600 61.830,135.417 62.000 C 134.800 62.572,133.311 63.523,132.683 63.744 C 132.340 63.865,131.690 64.149,131.238 64.375 C 129.333 65.327,122.565 66.000,120.417 65.450 C 119.867 65.310,118.950 65.144,118.379 65.081 C 117.808 65.019,117.058 64.819,116.712 64.637 C 116.366 64.455,115.700 64.170,115.232 64.003 C 113.317 63.323,109.169 59.532,108.638 57.977 C 108.532 57.669,108.243 57.042,107.994 56.583 C 107.736 56.109,107.460 55.225,107.351 54.531 C 106.930 51.846,107.711 52.012,95.401 51.982 L 85.105 51.957 84.789 52.347 C 84.017 53.300,85.179 55.401,87.417 57.100 C 88.375 57.827,90.943 58.476,91.990 58.256 C 92.225 58.207,93.218 58.064,94.197 57.938 C 95.549 57.765,96.091 57.621,96.447 57.341 C 99.300 55.095,99.219 55.091,101.921 57.604 C 104.101 59.631,104.392 60.084,103.983 60.813 C 103.554 61.576,100.935 63.444,99.749 63.832 C 99.383 63.951,98.708 64.257,98.250 64.511 C 97.660 64.838,97.003 65.023,96.000 65.144 C 95.221 65.238,93.670 65.435,92.554 65.581 C 90.621 65.834,90.428 65.832,88.471 65.520 C 87.341 65.340,85.967 65.144,85.417 65.083 C 84.749 65.009,84.167 64.815,83.667 64.500 C 83.254 64.241,82.603 63.945,82.220 63.844 C 80.806 63.471,78.336 61.255,76.443 58.662 C 76.140 58.246,75.804 57.656,75.697 57.349 C 75.590 57.043,75.183 56.239,74.793 55.563 C 73.854 53.938,73.538 53.941,73.156 55.583 C 72.438 58.665,69.520 62.528,66.880 63.893 C 66.584 64.046,66.067 64.357,65.731 64.585 C 65.395 64.813,64.924 65.001,64.685 65.003 C 64.446 65.004,63.545 65.154,62.683 65.336 C 61.058 65.679,58.839 65.754,57.500 65.511 C 57.087 65.436,56.188 65.280,55.500 65.164 C 54.745 65.036,54.052 64.807,53.750 64.584 C 53.475 64.382,52.987 64.084,52.667 63.923 C 52.346 63.762,51.813 63.371,51.482 63.055 C 51.067 62.657,50.716 62.474,50.347 62.464 C 49.311 62.434,49.335 62.267,49.291 69.642 L 49.250 76.353 48.833 76.670 C 47.922 77.365,40.317 77.392,39.629 76.704 L 39.250 76.324 39.208 55.321 L 39.166 34.319 39.586 33.899 L 40.005 33.480 44.351 33.531 C 49.364 33.591,49.425 33.610,49.229 35.054 C 49.000 36.735,50.278 37.159,51.582 35.835 C 52.032 35.378,52.667 34.917,52.992 34.811 C 53.317 34.704,53.958 34.409,54.417 34.155 C 55.949 33.303,60.569 33.100,63.457 33.758 C 67.644 34.711,72.303 39.424,73.166 43.578 C 73.295 44.202,73.466 44.559,73.693 44.681 C 74.082 44.889,74.039 44.919,74.419 44.167 C 74.581 43.846,74.849 43.410,75.013 43.199 C 75.178 42.987,75.441 42.425,75.597 41.949 C 75.753 41.473,76.080 40.821,76.324 40.500 C 76.567 40.179,76.897 39.708,77.057 39.453 C 77.527 38.704,79.824 36.511,80.500 36.167 C 80.842 35.992,81.338 35.668,81.603 35.447 C 81.867 35.226,82.271 34.990,82.500 34.921 C 82.729 34.853,83.512 34.538,84.240 34.221 C 86.480 33.247,93.841 33.044,96.093 33.894 C 96.454 34.031,97.328 34.356,98.035 34.618 C 99.934 35.320,102.603 37.497,103.627 39.178 C 103.826 39.504,104.137 39.906,104.319 40.070 C 104.500 40.234,104.699 40.604,104.761 40.892 C 104.823 41.181,105.119 41.904,105.420 42.500 C 105.720 43.096,106.057 43.981,106.168 44.467 C 106.459 45.738,106.941 45.648,107.329 44.250 C 107.482 43.700,107.845 42.808,108.137 42.268 C 108.428 41.728,108.667 41.192,108.667 41.076 C 108.667 40.531,112.576 36.169,113.070 36.165 C 113.169 36.164,113.579 35.902,113.982 35.582 C 114.384 35.262,115.021 34.924,115.398 34.830 C 115.775 34.736,116.533 34.439,117.083 34.170 C 118.949 33.256,126.790 33.088,128.994 33.914 C 133.514 35.608,136.404 38.180,137.707 41.667 C 138.290 43.226,139.312 44.808,139.676 44.713 C 140.026 44.621,140.074 44.502,140.325 43.090 C 140.422 42.544,140.676 41.832,140.889 41.507 C 141.102 41.182,141.357 40.682,141.456 40.394 C 142.056 38.651,144.931 35.758,147.000 34.817 C 147.412 34.630,148.096 34.295,148.520 34.073 C 150.520 33.025,157.156 33.121,159.243 34.228 C 159.870 34.561,160.482 34.833,160.603 34.833 C 160.724 34.833,161.202 35.171,161.667 35.583 C 162.625 36.435,163.392 36.579,163.911 36.007 C 164.183 35.705,164.206 35.160,164.207 28.965 C 164.208 21.776,164.228 21.588,165.038 21.468 C 166.800 21.207,173.713 21.438,173.979 21.767 M224.741 21.436 C 225.346 21.669,225.387 22.120,225.458 29.493 C 225.497 33.618,225.596 36.868,225.686 37.037 C 225.935 37.502,226.443 37.386,226.926 36.753 C 228.162 35.132,230.844 33.713,233.279 33.392 C 236.179 33.010,240.713 33.345,241.416 33.994 C 241.600 34.164,242.200 34.571,242.750 34.898 C 244.303 35.823,245.767 37.432,246.192 38.681 C 246.299 38.994,246.599 39.496,246.860 39.797 C 247.120 40.099,247.335 40.511,247.337 40.714 C 247.338 40.917,247.455 42.171,247.596 43.500 C 247.859 45.984,247.976 64.100,247.733 64.734 C 247.486 65.377,246.891 65.468,242.601 65.521 L 238.461 65.571 238.147 65.184 C 237.887 64.862,237.833 64.509,237.830 63.107 C 237.791 46.008,237.645 44.717,235.583 43.310 C 232.251 41.037,228.757 41.786,226.493 45.261 C 225.546 46.714,225.502 47.189,225.500 56.000 C 225.497 66.515,226.079 65.547,219.813 65.469 L 215.637 65.417 215.233 64.947 L 214.829 64.476 214.837 43.263 C 214.845 22.275,214.849 22.046,215.179 21.692 C 215.513 21.334,223.891 21.110,224.741 21.436 M20.667 32.841 C 19.979 33.016,18.863 33.210,18.186 33.272 C 17.184 33.365,16.805 33.487,16.149 33.929 C 15.705 34.227,15.099 34.525,14.803 34.590 C 12.213 35.159,9.482 40.144,9.709 43.890 C 9.864 46.466,12.197 50.178,14.026 50.758 C 14.228 50.822,14.684 51.086,15.040 51.343 C 15.395 51.600,15.925 51.859,16.218 51.918 C 16.511 51.976,17.398 52.281,18.190 52.595 C 18.982 52.910,19.769 53.167,19.940 53.167 C 20.110 53.167,20.726 53.392,21.307 53.667 C 21.889 53.942,22.796 54.267,23.324 54.389 C 24.328 54.621,25.455 55.377,25.824 56.065 C 26.732 57.762,23.173 59.196,20.333 58.278 C 19.646 58.056,18.709 57.820,18.252 57.754 C 17.794 57.688,16.932 57.386,16.335 57.083 C 15.738 56.780,15.063 56.479,14.833 56.415 C 14.604 56.350,14.047 56.064,13.596 55.779 C 12.963 55.380,12.582 55.260,11.931 55.256 L 11.087 55.250 10.167 57.083 C 9.660 58.092,9.078 59.179,8.874 59.500 C 8.036 60.811,8.471 62.171,9.984 62.978 C 10.536 63.272,11.030 63.580,11.080 63.661 C 11.130 63.742,11.563 63.938,12.044 64.098 C 12.524 64.257,13.367 64.600,13.917 64.860 C 14.475 65.124,15.211 65.336,15.583 65.341 C 15.950 65.345,16.550 65.459,16.917 65.594 C 20.409 66.883,26.975 66.446,30.583 64.684 C 31.133 64.415,31.857 64.082,32.191 63.942 C 32.525 63.803,33.087 63.336,33.441 62.905 C 33.794 62.474,34.352 61.850,34.681 61.518 C 36.562 59.617,37.214 54.989,35.975 52.331 C 35.062 50.373,33.224 48.252,32.142 47.909 C 31.946 47.847,31.457 47.587,31.055 47.332 C 30.653 47.077,30.045 46.818,29.704 46.756 C 29.362 46.695,28.633 46.428,28.083 46.164 C 27.533 45.899,26.572 45.602,25.947 45.503 C 25.288 45.399,24.536 45.150,24.156 44.910 C 23.796 44.683,23.107 44.413,22.626 44.311 C 19.023 43.549,19.434 40.010,23.060 40.567 C 23.440 40.625,24.627 40.775,25.699 40.900 C 27.203 41.076,27.752 41.209,28.100 41.484 C 28.349 41.679,28.972 41.961,29.484 42.110 C 29.996 42.259,30.699 42.560,31.046 42.779 C 32.475 43.681,34.333 42.647,34.333 40.948 C 34.333 40.821,34.551 40.417,34.816 40.050 C 35.551 39.035,36.360 37.081,36.241 36.606 C 36.132 36.171,33.708 34.870,32.300 34.491 C 31.906 34.385,31.265 34.112,30.876 33.884 C 30.338 33.569,29.797 33.436,28.626 33.332 C 27.777 33.257,26.226 33.039,25.179 32.848 C 22.890 32.430,22.294 32.429,20.667 32.841 M27.007 33.565 C 29.003 33.725,29.544 33.826,30.072 34.138 C 30.425 34.346,31.121 34.623,31.619 34.752 C 32.117 34.882,32.798 35.160,33.131 35.369 C 33.464 35.579,34.070 35.862,34.478 36.000 C 35.728 36.422,35.831 37.560,34.762 39.149 C 34.458 39.600,34.125 40.213,34.021 40.510 C 33.227 42.790,32.405 42.924,29.034 41.326 C 27.795 40.739,23.097 39.754,22.144 39.882 C 21.347 39.989,19.715 40.966,19.597 41.407 C 19.217 42.819,20.024 44.105,21.542 44.508 C 21.931 44.612,22.738 44.916,23.333 45.185 C 23.929 45.454,24.806 45.744,25.282 45.831 C 25.758 45.917,26.595 46.176,27.143 46.407 C 27.690 46.637,28.501 46.906,28.944 47.004 C 29.387 47.102,30.012 47.352,30.333 47.559 C 30.654 47.766,31.254 48.063,31.667 48.220 C 33.642 48.971,36.112 52.840,36.208 55.333 C 36.279 57.174,35.199 60.109,33.943 61.491 C 32.250 63.354,31.917 63.632,31.132 63.839 C 30.738 63.943,30.065 64.252,29.636 64.525 C 28.961 64.954,28.564 65.055,26.719 65.269 C 25.544 65.406,24.283 65.587,23.917 65.671 C 23.025 65.877,21.203 65.873,20.217 65.663 C 19.777 65.569,18.462 65.351,17.295 65.178 C 15.908 64.973,14.984 64.748,14.628 64.528 C 14.328 64.343,13.722 64.101,13.280 63.990 C 11.522 63.548,9.000 61.763,9.000 60.960 C 9.000 60.592,10.096 58.237,10.524 57.687 C 10.693 57.468,10.915 56.981,11.017 56.603 C 11.315 55.494,11.958 55.363,13.167 56.167 C 13.579 56.441,13.997 56.666,14.094 56.666 C 14.192 56.666,14.862 56.967,15.583 57.333 C 16.305 57.700,17.038 58.000,17.212 58.000 C 17.387 58.000,18.217 58.243,19.057 58.540 C 22.957 59.919,27.176 58.595,26.573 56.179 C 26.402 55.492,24.832 54.224,23.976 54.081 C 23.577 54.014,22.837 53.753,22.333 53.500 C 21.829 53.248,21.154 52.986,20.833 52.919 C 20.512 52.852,19.757 52.589,19.155 52.335 C 18.553 52.082,17.653 51.787,17.155 51.681 C 16.657 51.574,15.977 51.307,15.644 51.087 C 15.310 50.867,14.785 50.570,14.477 50.428 C 12.595 49.556,10.832 47.003,10.154 44.167 C 9.905 43.121,11.004 39.055,11.832 37.963 C 12.199 37.479,12.499 37.041,12.499 36.988 C 12.501 36.745,14.795 35.091,15.480 34.838 C 15.904 34.682,16.542 34.354,16.898 34.110 C 17.381 33.780,17.763 33.663,18.398 33.654 C 18.867 33.647,19.887 33.540,20.667 33.416 C 22.092 33.190,22.418 33.198,27.007 33.565 M270.656 33.511 C 271.154 33.597,271.849 33.667,272.201 33.667 C 272.592 33.667,273.091 33.825,273.485 34.074 C 273.840 34.298,274.592 34.601,275.156 34.747 C 275.719 34.893,276.508 35.254,276.909 35.548 C 277.310 35.842,278.199 36.496,278.885 37.000 C 279.572 37.504,280.265 38.142,280.427 38.417 C 280.589 38.692,280.953 39.190,281.236 39.525 C 285.414 44.465,285.375 54.965,281.160 59.583 C 280.909 59.858,280.582 60.326,280.432 60.623 C 280.280 60.926,279.881 61.306,279.527 61.486 C 279.179 61.664,278.797 61.926,278.678 62.070 C 278.305 62.519,276.494 63.684,275.773 63.937 C 275.394 64.071,274.821 64.360,274.500 64.579 C 274.109 64.846,273.495 65.035,272.636 65.152 C 271.932 65.248,271.032 65.397,270.636 65.483 C 268.512 65.944,266.281 66.048,264.750 65.757 C 263.925 65.600,262.540 65.365,261.673 65.235 C 260.603 65.074,259.907 64.872,259.506 64.608 C 259.182 64.394,258.617 64.122,258.250 64.004 C 256.201 63.345,252.017 59.609,251.340 57.833 C 251.217 57.512,250.911 56.913,250.658 56.500 C 250.324 55.953,250.127 55.286,249.933 54.033 C 249.786 53.088,249.542 52.076,249.391 51.784 C 248.927 50.886,248.890 48.467,249.320 47.197 C 249.517 46.619,249.819 45.456,249.993 44.614 C 250.506 42.118,252.832 38.303,254.472 37.268 C 254.811 37.054,255.195 36.750,255.325 36.594 C 255.455 36.437,255.866 36.156,256.239 35.969 C 256.612 35.782,257.067 35.497,257.250 35.335 C 257.433 35.173,257.883 34.948,258.250 34.834 C 258.617 34.720,259.311 34.405,259.794 34.133 C 261.246 33.316,267.453 32.961,270.656 33.511 M90.250 40.071 C 90.158 40.104,89.468 40.299,88.716 40.503 C 87.192 40.918,85.631 42.139,85.099 43.333 C 84.957 43.654,84.688 44.178,84.503 44.497 C 83.889 45.558,84.096 46.583,84.978 46.844 C 86.208 47.208,95.931 46.977,96.333 46.575 C 97.194 45.713,96.724 43.621,95.298 41.965 C 94.352 40.867,91.263 39.708,90.250 40.071 M122.833 40.118 C 119.582 40.683,117.071 43.021,116.975 45.573 C 116.922 46.965,116.700 46.917,123.187 46.917 L 128.862 46.917 129.181 46.523 C 130.069 45.428,128.839 42.219,127.094 41.075 C 126.690 40.811,123.783 39.976,123.425 40.023 C 123.329 40.035,123.063 40.078,122.833 40.118 M92.911 41.033 C 95.153 41.532,97.265 45.448,95.708 46.218 C 94.980 46.578,85.773 46.608,85.229 46.252 C 83.926 45.398,86.801 41.197,88.872 40.930 C 89.263 40.879,89.771 40.807,90.000 40.770 C 90.545 40.682,91.873 40.802,92.911 41.033 M125.081 40.925 C 127.546 41.242,130.168 45.227,128.592 46.260 C 128.005 46.644,118.081 46.589,117.625 46.198 C 117.203 45.837,117.265 45.318,117.830 44.483 C 118.104 44.080,118.329 43.655,118.330 43.538 C 118.343 42.679,120.635 41.081,122.167 40.863 C 123.236 40.711,123.445 40.715,125.081 40.925 M54.946 40.997 C 50.564 41.790,47.862 49.626,50.502 53.886 C 50.776 54.328,51.000 54.761,51.000 54.848 C 51.000 55.178,52.370 56.475,53.374 57.095 L 54.417 57.740 56.500 57.745 L 58.583 57.750 59.771 57.124 C 63.063 55.389,64.413 51.835,63.624 46.976 C 62.940 42.759,59.251 40.218,54.946 40.997 M154.833 41.392 C 152.232 42.316,150.190 44.472,149.918 46.583 C 149.859 47.042,149.687 47.920,149.537 48.535 C 149.283 49.570,149.283 49.714,149.534 50.452 C 149.684 50.891,149.844 51.684,149.892 52.215 C 149.941 52.767,150.122 53.409,150.316 53.715 C 150.502 54.009,150.837 54.587,151.061 55.000 C 152.938 58.466,158.407 59.083,161.554 56.184 C 164.117 53.824,164.879 46.953,162.838 44.610 C 162.586 44.320,162.257 43.843,162.107 43.550 C 161.170 41.720,157.214 40.546,154.833 41.392 M301.667 41.690 C 299.932 42.630,299.161 43.445,298.303 45.243 L 297.583 46.750 297.583 49.333 L 297.583 51.917 298.228 53.333 C 299.821 56.835,304.022 58.841,306.729 57.392 C 308.605 56.388,308.996 56.132,309.462 55.601 C 311.921 52.801,312.321 47.666,310.340 44.333 C 308.480 41.204,304.692 40.050,301.667 41.690 M264.945 41.635 C 262.791 42.291,261.593 43.340,260.530 45.500 L 259.751 47.083 259.763 49.583 L 259.775 52.083 260.537 53.639 C 262.883 58.432,268.585 59.385,271.954 55.548 C 277.265 49.498,272.193 39.430,264.945 41.635 M58.765 41.844 C 60.202 42.339,62.000 43.672,62.000 44.243 C 62.000 44.337,62.281 44.822,62.625 45.321 L 63.250 46.229 63.250 49.323 L 63.250 52.417 62.625 53.331 C 62.281 53.834,62.000 54.336,62.000 54.447 C 62.000 55.352,58.533 57.333,56.950 57.333 C 54.654 57.333,51.793 55.815,51.310 54.341 C 51.203 54.016,50.930 53.504,50.702 53.204 C 49.797 52.013,49.803 46.596,50.709 45.518 C 50.945 45.238,51.224 44.747,51.330 44.426 C 52.067 42.193,55.906 40.860,58.765 41.844 M158.383 41.929 C 160.494 42.477,161.729 43.537,162.908 45.816 C 163.293 46.562,163.511 49.528,163.318 51.400 C 162.739 56.992,155.979 59.641,152.307 55.715 C 146.972 50.010,151.338 40.104,158.383 41.929 M7.889 72.690 C 7.181 73.046,7.029 76.768,7.704 77.241 C 8.251 77.624,28.590 77.634,29.330 77.252 C 30.432 76.682,30.348 73.621,29.210 72.875 C 28.667 72.519,8.576 72.344,7.889 72.690 M60.062 72.615 C 58.615 72.898,58.317 76.838,59.707 77.323 C 60.063 77.446,74.569 77.500,107.782 77.500 L 155.348 77.500 155.758 77.091 C 156.445 76.404,156.279 73.088,155.538 72.725 C 155.257 72.587,60.763 72.478,60.062 72.615 " stroke="none" fill="#8a22c4" fill-rule="evenodd"></path><path id="path2" d="M0.000 43.250 L 0.000 86.500 200.000 86.500 L 400.000 86.500 400.000 43.250 L 400.000 0.000 200.000 0.000 L 0.000 0.000 0.000 43.250 M386.730 7.458 C 387.962 8.047,388.455 8.411,389.665 9.625 L 391.119 11.083 391.810 13.209 C 392.709 15.978,392.710 16.590,391.820 19.232 C 391.446 20.342,391.000 21.401,390.828 21.586 C 390.656 21.770,390.405 22.186,390.271 22.509 C 390.045 23.049,389.796 23.461,388.344 25.707 C 388.063 26.141,387.833 26.561,387.833 26.640 C 387.833 26.719,387.618 27.080,387.355 27.444 C 387.092 27.807,386.728 28.437,386.546 28.844 C 386.364 29.250,386.054 29.726,385.858 29.901 C 385.661 30.075,385.500 30.301,385.500 30.401 C 385.500 30.620,383.985 33.222,383.619 33.630 C 383.478 33.788,383.177 34.338,382.950 34.854 C 382.723 35.369,382.452 35.843,382.349 35.907 C 382.245 35.971,381.974 36.375,381.746 36.803 C 381.518 37.232,381.035 38.071,380.673 38.667 C 380.310 39.262,379.813 40.125,379.567 40.583 C 379.321 41.042,378.951 41.642,378.745 41.917 C 378.539 42.192,378.174 42.792,377.934 43.250 C 377.694 43.708,377.160 44.608,376.748 45.250 C 376.336 45.892,375.895 46.649,375.768 46.934 C 375.641 47.219,375.304 47.774,375.019 48.167 C 374.733 48.561,374.500 48.974,374.500 49.086 C 374.500 49.197,374.200 49.730,373.834 50.269 C 373.467 50.809,373.167 51.318,373.167 51.401 C 373.167 51.484,372.990 51.784,372.774 52.068 C 372.558 52.351,372.210 52.921,372.000 53.333 C 371.790 53.746,371.442 54.315,371.226 54.599 C 371.010 54.883,370.833 55.183,370.833 55.266 C 370.833 55.349,370.551 55.844,370.208 56.366 C 369.864 56.888,369.255 57.901,368.854 58.616 C 368.453 59.331,367.909 60.229,367.646 60.611 C 367.382 60.992,367.167 61.367,367.167 61.442 C 367.167 61.564,366.738 62.248,365.774 63.667 C 365.618 63.896,365.211 64.496,364.870 65.000 C 364.529 65.505,364.026 66.217,363.751 66.584 C 363.029 67.549,360.362 70.129,359.583 70.616 C 359.217 70.845,358.729 71.250,358.500 71.515 C 358.033 72.056,356.678 72.953,355.405 73.564 C 354.940 73.787,354.194 74.201,353.747 74.485 C 353.300 74.768,352.772 75.000,352.574 75.000 C 352.376 75.000,351.772 75.225,351.232 75.500 C 350.692 75.775,349.537 76.188,348.667 76.417 C 347.796 76.647,346.671 76.961,346.167 77.115 C 344.348 77.670,298.168 77.645,297.611 77.088 C 297.326 76.802,297.355 63.681,297.643 62.958 C 297.908 62.293,298.464 62.361,299.240 63.156 C 299.592 63.517,300.114 63.907,300.399 64.022 C 300.684 64.137,301.179 64.398,301.500 64.602 C 303.224 65.700,307.105 66.203,309.667 65.660 C 310.537 65.475,311.662 65.246,312.167 65.150 C 312.671 65.054,313.346 64.798,313.667 64.581 C 313.987 64.363,314.587 64.031,315.000 63.843 C 317.023 62.918,319.810 59.682,320.809 57.099 C 321.808 54.517,321.880 54.035,321.899 49.750 L 321.917 45.750 321.361 43.917 C 320.803 42.077,319.206 38.798,318.741 38.538 C 318.606 38.463,318.328 38.166,318.123 37.878 C 317.440 36.921,315.095 35.058,314.195 34.760 C 313.732 34.605,313.177 34.341,312.962 34.172 C 311.412 32.954,303.846 32.922,301.852 34.126 C 301.429 34.381,300.885 34.701,300.642 34.836 C 300.399 34.972,299.777 35.407,299.260 35.802 C 297.931 36.817,297.371 36.474,297.343 34.629 C 297.326 33.502,297.184 33.473,291.917 33.532 C 287.693 33.579,287.288 33.609,287.086 33.885 C 286.905 34.132,286.863 38.102,286.856 55.539 C 286.848 74.748,286.821 76.918,286.584 77.154 C 286.277 77.461,184.126 77.651,179.200 77.353 C 176.829 77.210,176.606 77.168,176.033 76.756 C 175.694 76.512,174.915 75.961,174.301 75.532 C 171.680 73.695,170.567 71.184,170.504 66.965 C 170.493 66.184,169.914 66.000,167.460 66.000 C 164.599 66.000,163.500 65.505,163.500 64.217 C 163.500 63.165,163.034 63.018,162.112 63.778 C 161.853 63.992,161.567 64.167,161.476 64.167 C 161.385 64.167,161.059 64.359,160.752 64.593 C 157.814 66.834,150.728 66.874,147.146 64.670 C 146.696 64.393,146.259 64.167,146.174 64.167 C 145.980 64.167,144.667 63.090,143.593 62.048 C 141.984 60.488,140.537 58.067,139.897 55.863 C 138.955 52.620,139.044 52.667,133.795 52.642 C 121.154 52.584,118.186 52.653,117.994 53.011 C 117.578 53.789,119.558 56.406,121.220 57.273 C 122.644 58.015,127.091 57.858,128.414 57.019 C 128.864 56.733,129.316 56.500,129.419 56.500 C 129.522 56.500,129.929 56.224,130.323 55.887 C 130.910 55.385,131.201 55.261,131.939 55.200 L 132.839 55.125 135.086 57.356 C 137.898 60.148,137.941 60.311,136.292 61.853 C 135.719 62.388,135.201 62.828,135.141 62.830 C 135.081 62.832,134.723 63.091,134.345 63.407 C 133.968 63.722,133.492 64.028,133.288 64.086 C 133.084 64.144,132.504 64.405,132.000 64.666 C 131.496 64.926,130.596 65.226,130.000 65.333 C 129.404 65.440,128.317 65.674,127.583 65.854 C 125.422 66.383,121.552 66.465,120.167 66.011 C 119.571 65.815,118.489 65.547,117.763 65.414 C 116.388 65.162,114.052 64.195,113.333 63.581 C 113.104 63.385,112.542 62.954,112.083 62.624 C 110.800 61.700,108.333 58.960,108.333 58.458 C 108.333 58.360,108.108 57.928,107.832 57.499 C 107.542 57.046,107.260 56.305,107.160 55.734 C 106.593 52.468,107.162 52.643,97.216 52.674 C 92.743 52.688,88.632 52.647,88.081 52.583 C 84.108 52.119,84.714 55.176,89.046 57.444 C 90.880 58.404,95.423 57.550,97.574 55.841 C 99.122 54.611,99.913 54.860,102.555 57.407 C 105.238 59.993,105.352 60.314,104.062 61.631 C 103.251 62.458,100.612 64.167,100.145 64.167 C 100.010 64.167,99.535 64.397,99.090 64.680 C 98.520 65.041,97.861 65.266,96.856 65.441 C 96.072 65.578,95.368 65.728,95.292 65.775 C 94.123 66.498,86.921 66.358,85.676 65.589 C 85.611 65.549,85.092 65.442,84.521 65.350 C 83.840 65.240,83.315 65.041,82.994 64.770 C 82.724 64.544,82.099 64.240,81.603 64.096 C 81.108 63.952,80.661 63.725,80.609 63.591 C 80.558 63.457,80.231 63.166,79.883 62.945 C 78.455 62.037,75.946 59.179,75.345 57.778 C 74.431 55.645,73.732 55.336,73.324 56.883 C 73.095 57.749,72.122 59.543,71.432 60.366 C 71.149 60.705,70.738 61.216,70.520 61.502 C 69.417 62.947,66.267 65.135,64.954 65.368 C 64.475 65.453,63.462 65.715,62.702 65.950 C 60.914 66.502,57.460 66.465,56.144 65.880 C 55.720 65.691,55.045 65.484,54.644 65.420 C 54.244 65.357,53.540 65.059,53.079 64.759 C 52.618 64.458,52.076 64.161,51.875 64.097 C 51.674 64.033,51.375 63.812,51.213 63.606 C 50.836 63.131,50.426 62.974,50.187 63.213 C 50.055 63.345,50.000 65.333,50.000 69.958 L 50.000 76.515 49.602 76.913 C 49.033 77.482,48.583 77.525,43.716 77.468 C 40.411 77.429,39.297 77.364,39.133 77.200 C 38.764 76.831,38.819 33.776,39.189 33.406 C 39.428 33.168,39.999 33.136,43.847 33.149 C 49.731 33.169,49.853 33.199,49.927 34.654 C 49.996 35.992,50.410 36.211,51.238 35.345 C 51.495 35.077,51.941 34.766,52.228 34.654 C 52.515 34.542,53.093 34.237,53.513 33.976 C 53.932 33.716,54.645 33.430,55.096 33.341 C 55.547 33.252,56.442 33.065,57.083 32.926 C 59.127 32.482,64.626 33.142,65.796 33.972 C 66.046 34.149,66.587 34.453,67.000 34.647 C 69.223 35.692,73.333 40.807,73.333 42.526 C 73.333 42.695,73.488 42.988,73.676 43.176 L 74.019 43.519 74.452 42.884 C 74.690 42.535,75.073 41.837,75.303 41.333 C 76.463 38.787,80.111 35.195,82.164 34.577 C 82.392 34.509,82.850 34.273,83.181 34.054 C 83.758 33.672,84.250 33.552,87.764 32.933 C 90.601 32.434,96.126 33.019,97.988 34.016 C 98.485 34.282,98.985 34.500,99.097 34.500 C 99.792 34.500,103.833 37.990,103.833 38.591 C 103.833 38.656,104.096 39.000,104.417 39.355 C 104.737 39.710,105.000 40.082,105.000 40.181 C 105.000 40.280,105.300 40.967,105.667 41.707 C 106.033 42.447,106.333 43.191,106.333 43.360 C 106.333 43.954,106.958 43.717,107.174 43.042 C 107.283 42.698,107.579 42.075,107.832 41.658 C 108.084 41.240,108.347 40.715,108.417 40.491 C 108.620 39.842,112.290 35.833,112.683 35.833 C 112.748 35.833,113.109 35.577,113.484 35.263 C 113.859 34.950,114.410 34.641,114.708 34.576 C 115.006 34.512,115.675 34.239,116.196 33.969 C 116.859 33.626,117.629 33.410,118.779 33.247 C 119.680 33.118,120.821 32.936,121.314 32.840 C 122.577 32.596,124.471 32.625,125.882 32.908 C 126.543 33.041,127.652 33.226,128.348 33.319 C 132.223 33.839,136.030 36.970,138.243 41.458 C 139.344 43.690,139.788 43.882,140.073 42.250 C 140.137 41.883,140.367 41.311,140.584 40.977 C 140.802 40.644,141.091 40.104,141.228 39.778 C 142.901 35.774,148.734 32.570,154.250 32.625 C 155.569 32.639,159.081 33.416,159.649 33.821 C 159.896 33.997,160.507 34.323,161.007 34.546 C 161.507 34.769,162.060 35.113,162.234 35.309 C 162.596 35.717,163.253 35.784,163.390 35.427 C 163.440 35.295,163.496 32.206,163.514 28.563 C 163.555 20.084,162.914 20.868,169.691 21.000 C 173.593 21.076,173.996 21.111,174.316 21.401 L 174.667 21.718 174.667 39.037 C 174.667 58.833,174.615 58.203,176.028 55.742 C 176.425 55.050,176.918 54.244,177.124 53.950 C 177.329 53.657,177.669 53.079,177.879 52.667 C 178.089 52.254,178.453 51.617,178.688 51.250 C 178.923 50.883,179.440 50.021,179.835 49.333 C 180.230 48.646,180.804 47.708,181.110 47.249 C 181.416 46.789,181.667 46.331,181.667 46.229 C 181.667 45.137,183.175 44.533,184.356 45.152 C 184.896 45.435,185.433 45.667,185.549 45.667 C 185.665 45.667,186.282 45.916,186.921 46.221 C 187.560 46.527,188.435 46.864,188.865 46.971 C 189.296 47.079,189.905 47.318,190.219 47.504 C 190.534 47.690,191.344 47.947,192.021 48.077 C 192.697 48.207,193.668 48.504,194.179 48.738 C 194.690 48.973,195.506 49.240,195.992 49.332 C 196.479 49.424,197.148 49.668,197.480 49.874 C 197.812 50.080,198.425 50.407,198.843 50.602 C 201.102 51.652,201.818 54.375,200.229 55.866 C 198.510 57.477,192.550 57.621,189.572 56.123 C 189.120 55.895,188.329 55.588,187.813 55.440 C 187.298 55.291,186.785 55.060,186.673 54.925 C 186.561 54.790,186.071 54.530,185.585 54.348 C 184.717 54.023,183.557 53.318,182.267 52.331 C 181.073 51.417,179.778 51.884,179.365 53.378 C 179.274 53.709,179.014 54.228,178.787 54.531 C 178.560 54.835,178.282 55.383,178.168 55.750 C 178.055 56.117,177.746 56.759,177.483 57.178 C 176.341 58.994,176.998 60.202,179.823 61.480 C 180.152 61.628,180.660 61.921,180.953 62.131 C 181.246 62.341,181.732 62.597,182.034 62.701 C 182.336 62.805,182.857 63.070,183.191 63.289 C 183.525 63.509,184.275 63.797,184.858 63.931 C 185.440 64.065,186.373 64.354,186.931 64.575 C 187.489 64.796,188.572 65.062,189.339 65.167 C 190.106 65.272,191.450 65.510,192.325 65.696 C 194.111 66.075,195.991 66.042,198.119 65.594 C 198.780 65.454,200.056 65.271,200.955 65.187 C 202.351 65.055,202.770 64.940,203.842 64.392 C 204.532 64.039,205.281 63.666,205.507 63.563 C 206.450 63.133,207.816 62.306,208.186 61.941 C 208.405 61.725,208.751 61.461,208.957 61.353 C 209.473 61.081,210.660 59.435,211.018 58.494 C 211.181 58.065,211.487 57.385,211.699 56.982 C 212.060 56.294,212.083 56.065,212.083 53.167 L 212.083 50.083 211.566 49.167 C 211.282 48.663,210.951 47.950,210.831 47.583 C 210.562 46.759,208.479 44.617,207.167 43.815 C 206.662 43.506,205.900 43.019,205.473 42.731 C 205.015 42.424,204.365 42.161,203.890 42.093 C 203.446 42.030,202.726 41.794,202.289 41.570 C 201.853 41.345,200.958 41.048,200.302 40.910 C 199.645 40.772,198.690 40.475,198.179 40.250 C 197.668 40.024,196.888 39.762,196.446 39.667 C 196.004 39.571,195.290 39.315,194.860 39.097 C 194.430 38.879,193.756 38.614,193.362 38.508 C 190.937 37.855,189.411 34.624,190.809 33.104 C 192.019 31.790,197.358 31.627,200.158 32.818 C 200.771 33.079,201.667 33.377,202.149 33.481 C 202.630 33.584,203.280 33.863,203.592 34.101 C 203.904 34.339,204.479 34.605,204.871 34.692 C 205.263 34.779,205.874 35.051,206.230 35.296 C 206.928 35.777,208.165 35.920,208.294 35.535 C 208.332 35.421,208.616 34.959,208.926 34.509 C 209.236 34.059,209.576 33.346,209.682 32.925 C 209.788 32.504,210.081 31.875,210.333 31.527 C 210.585 31.178,210.850 30.711,210.920 30.488 C 210.991 30.266,211.225 29.804,211.441 29.462 C 211.833 28.840,211.936 28.236,211.706 27.911 C 211.403 27.485,209.750 26.442,209.039 26.228 C 208.608 26.099,207.969 25.803,207.620 25.573 C 207.272 25.342,206.566 25.075,206.052 24.980 C 205.538 24.885,204.697 24.618,204.184 24.386 C 203.436 24.048,202.818 23.933,201.083 23.807 C 197.015 23.513,196.891 23.495,196.519 23.149 C 195.995 22.661,196.058 21.744,196.673 20.917 C 196.945 20.550,197.299 20.036,197.459 19.774 C 198.149 18.647,201.744 14.509,202.487 13.986 C 202.801 13.765,203.566 13.172,204.188 12.667 C 206.065 11.144,209.799 9.000,210.576 9.000 C 210.682 9.000,211.290 8.738,211.926 8.417 C 212.563 8.097,213.291 7.834,213.545 7.834 C 213.799 7.834,214.549 7.639,215.211 7.402 C 215.874 7.165,216.792 6.912,217.250 6.840 C 217.708 6.767,255.696 6.717,301.667 6.729 L 385.250 6.750 386.730 7.458 M215.179 21.692 C 214.849 22.046,214.845 22.275,214.837 43.263 L 214.829 64.476 215.233 64.947 L 215.637 65.417 219.813 65.469 C 226.079 65.547,225.497 66.515,225.500 56.000 C 225.502 47.189,225.546 46.714,226.493 45.261 C 228.757 41.786,232.251 41.037,235.583 43.310 C 237.645 44.717,237.791 46.008,237.830 63.107 C 237.833 64.509,237.887 64.862,238.147 65.184 L 238.461 65.571 242.601 65.521 C 246.891 65.468,247.486 65.377,247.733 64.734 C 247.976 64.100,247.859 45.984,247.596 43.500 C 247.455 42.171,247.338 40.917,247.337 40.714 C 247.335 40.511,247.120 40.099,246.860 39.797 C 246.599 39.496,246.299 38.994,246.192 38.681 C 245.767 37.432,244.303 35.823,242.750 34.898 C 242.200 34.571,241.600 34.164,241.416 33.994 C 240.713 33.345,236.179 33.010,233.279 33.392 C 230.844 33.713,228.162 35.132,226.926 36.753 C 226.443 37.386,225.935 37.502,225.686 37.037 C 225.596 36.868,225.497 33.618,225.458 29.493 C 225.387 22.120,225.346 21.669,224.741 21.436 C 223.891 21.110,215.513 21.334,215.179 21.692 M25.179 32.848 C 26.226 33.039,27.777 33.257,28.626 33.332 C 29.797 33.436,30.338 33.569,30.876 33.884 C 31.265 34.112,31.906 34.385,32.300 34.491 C 33.708 34.870,36.132 36.171,36.241 36.606 C 36.360 37.081,35.551 39.035,34.816 40.050 C 34.551 40.417,34.333 40.821,34.333 40.948 C 34.333 42.647,32.475 43.681,31.046 42.779 C 30.699 42.560,29.996 42.259,29.484 42.110 C 28.972 41.961,28.349 41.679,28.100 41.484 C 27.752 41.209,27.203 41.076,25.699 40.900 C 24.627 40.775,23.440 40.625,23.060 40.567 C 19.434 40.010,19.023 43.549,22.626 44.311 C 23.107 44.413,23.796 44.683,24.156 44.910 C 24.536 45.150,25.288 45.399,25.947 45.503 C 26.572 45.602,27.533 45.899,28.083 46.164 C 28.633 46.428,29.362 46.695,29.704 46.756 C 30.045 46.818,30.653 47.077,31.055 47.332 C 31.457 47.587,31.946 47.847,32.142 47.909 C 33.224 48.252,35.062 50.373,35.975 52.331 C 37.214 54.989,36.562 59.617,34.681 61.518 C 34.352 61.850,33.794 62.474,33.441 62.905 C 33.087 63.336,32.525 63.803,32.191 63.942 C 31.857 64.082,31.133 64.415,30.583 64.684 C 26.975 66.446,20.409 66.883,16.917 65.594 C 16.550 65.459,15.950 65.345,15.583 65.341 C 15.211 65.336,14.475 65.124,13.917 64.860 C 13.367 64.600,12.524 64.257,12.044 64.098 C 11.563 63.938,11.130 63.742,11.080 63.661 C 11.030 63.580,10.536 63.272,9.984 62.978 C 8.471 62.171,8.036 60.811,8.874 59.500 C 9.078 59.179,9.660 58.092,10.167 57.083 L 11.087 55.250 11.931 55.256 C 12.582 55.260,12.963 55.380,13.596 55.779 C 14.047 56.064,14.604 56.350,14.833 56.415 C 15.063 56.479,15.738 56.780,16.335 57.083 C 16.932 57.386,17.794 57.688,18.252 57.754 C 18.709 57.820,19.646 58.056,20.333 58.278 C 23.173 59.196,26.732 57.762,25.824 56.065 C 25.455 55.377,24.328 54.621,23.324 54.389 C 22.796 54.267,21.889 53.942,21.307 53.667 C 20.726 53.392,20.110 53.167,19.940 53.167 C 19.769 53.167,18.982 52.910,18.190 52.595 C 17.398 52.281,16.511 51.976,16.218 51.918 C 15.925 51.859,15.395 51.600,15.040 51.343 C 14.684 51.086,14.228 50.822,14.026 50.758 C 12.197 50.178,9.864 46.466,9.709 43.890 C 9.482 40.144,12.213 35.159,14.803 34.590 C 15.099 34.525,15.705 34.227,16.149 33.929 C 16.805 33.487,17.184 33.365,18.186 33.272 C 18.863 33.210,19.979 33.016,20.667 32.841 C 22.294 32.429,22.890 32.430,25.179 32.848 M263.127 33.419 C 260.937 33.616,260.576 33.693,259.794 34.133 C 259.311 34.405,258.617 34.720,258.250 34.834 C 257.883 34.948,257.433 35.173,257.250 35.335 C 257.067 35.497,256.612 35.782,256.239 35.969 C 255.866 36.156,255.455 36.437,255.325 36.594 C 255.195 36.750,254.811 37.054,254.472 37.268 C 252.832 38.303,250.506 42.118,249.993 44.614 C 249.819 45.456,249.517 46.619,249.320 47.197 C 248.890 48.467,248.927 50.886,249.391 51.784 C 249.542 52.076,249.786 53.088,249.933 54.033 C 250.127 55.286,250.324 55.953,250.658 56.500 C 250.911 56.913,251.217 57.512,251.340 57.833 C 252.017 59.609,256.201 63.345,258.250 64.004 C 258.617 64.122,259.182 64.394,259.506 64.608 C 259.907 64.872,260.603 65.074,261.673 65.235 C 262.540 65.365,263.925 65.600,264.750 65.757 C 266.281 66.048,268.512 65.944,270.636 65.483 C 271.032 65.397,271.932 65.248,272.636 65.152 C 273.495 65.035,274.109 64.846,274.500 64.579 C 274.821 64.360,275.394 64.071,275.773 63.937 C 276.494 63.684,278.305 62.519,278.678 62.070 C 278.797 61.926,279.179 61.664,279.527 61.486 C 279.881 61.306,280.280 60.926,280.432 60.623 C 280.582 60.326,280.909 59.858,281.160 59.583 C 282.688 57.909,283.827 55.146,284.114 52.417 C 284.717 46.683,283.794 42.549,281.236 39.525 C 280.953 39.190,280.589 38.692,280.427 38.417 C 280.265 38.142,279.572 37.504,278.885 37.000 C 278.199 36.496,277.310 35.842,276.909 35.548 C 276.508 35.254,275.719 34.893,275.156 34.747 C 274.592 34.601,273.840 34.298,273.485 34.074 C 273.091 33.825,272.592 33.667,272.201 33.667 C 271.849 33.667,271.154 33.597,270.656 33.511 C 269.043 33.234,265.643 33.192,263.127 33.419 M90.000 40.770 C 89.771 40.807,89.263 40.879,88.872 40.930 C 87.739 41.076,85.879 42.793,85.284 44.243 C 84.345 46.530,84.324 46.520,90.438 46.478 C 96.223 46.438,96.167 46.452,96.166 45.037 C 96.164 42.467,93.008 40.282,90.000 40.770 M122.167 40.863 C 120.635 41.081,118.343 42.679,118.330 43.538 C 118.329 43.655,118.104 44.080,117.830 44.483 C 117.265 45.318,117.203 45.837,117.625 46.198 C 118.081 46.589,128.005 46.644,128.592 46.260 C 130.168 45.227,127.546 41.242,125.081 40.925 C 123.445 40.715,123.236 40.711,122.167 40.863 M307.444 41.685 C 312.066 44.111,313.127 51.427,309.462 55.601 C 308.996 56.132,308.605 56.388,306.729 57.392 C 304.022 58.841,299.821 56.835,298.228 53.333 L 297.583 51.917 297.583 49.333 L 297.583 46.750 298.303 45.243 C 300.131 41.415,304.034 39.896,307.444 41.685 M269.083 41.740 C 275.485 43.929,275.870 54.329,269.658 57.244 C 266.149 58.891,262.379 57.401,260.537 53.639 L 259.775 52.083 259.763 49.583 L 259.751 47.083 260.530 45.500 C 262.281 41.942,265.516 40.520,269.083 41.740 M55.417 41.537 C 53.746 41.942,51.664 43.415,51.330 44.426 C 51.224 44.747,50.945 45.238,50.709 45.518 C 49.803 46.596,49.797 52.013,50.702 53.204 C 50.930 53.504,51.203 54.016,51.310 54.341 C 51.793 55.815,54.654 57.333,56.950 57.333 C 58.533 57.333,62.000 55.352,62.000 54.447 C 62.000 54.336,62.281 53.834,62.625 53.331 L 63.250 52.417 63.250 49.323 L 63.250 46.229 62.625 45.321 C 62.281 44.822,62.000 44.337,62.000 44.243 C 62.000 44.149,61.606 43.686,61.125 43.214 C 59.699 41.816,57.243 41.094,55.417 41.537 M154.882 41.987 C 149.748 43.455,148.260 51.388,152.307 55.715 C 155.979 59.641,162.739 56.992,163.318 51.400 C 163.511 49.528,163.293 46.562,162.908 45.816 C 161.153 42.423,158.230 41.029,154.882 41.987 M29.210 72.875 C 30.348 73.621,30.432 76.682,29.330 77.252 C 28.590 77.634,8.251 77.624,7.704 77.241 C 7.029 76.768,7.181 73.046,7.889 72.690 C 8.576 72.344,28.667 72.519,29.210 72.875 M155.538 72.725 C 156.279 73.088,156.445 76.404,155.758 77.091 L 155.348 77.500 107.782 77.500 C 74.569 77.500,60.063 77.446,59.707 77.323 C 58.317 76.838,58.615 72.898,60.062 72.615 C 60.763 72.478,155.257 72.587,155.538 72.725 " stroke="none" fill="#ffffff" fill-rule="evenodd"></path></g></svg>
